<svg viewBox="0 0 300 73" xmlns="http://www.w3.org/2000/svg"><path d="m29.48 65.28a32.36 32.36 0 0 1 1.73-64.57h2c1.39 0 3.81.32 4.44 2.1a3.17 3.17 0 0 1 -.1 2.48c-.61 1.26-2.15 2.28-4.85 3.2-6 2.07-12.07 4.73-14.36 12.34-3 10 3.84 17.13 3.91 17.2a6.77 6.77 0 0 0 .54.5 4.93 4.93 0 0 0 6.21.47 4.56 4.56 0 0 0 1.35-6.14c-1.73-3.38-2.18-6.55-1.27-8.9a6.13 6.13 0 0 1 3.77-3.57 6.5 6.5 0 0 1 5.65.57c2.62 1.52 4.75 4.62 6 8.73a25.14 25.14 0 0 1 .73 3.14c1.43 8.55-.24 15-5.9 20.71a33 33 0 0 1 -7.77 5.46c-1.22.67-2.82 1.58-2.91 1.64-.78.48-1 1-.86 1.5.18.67 1.35 1 1.79 1.12a2.81 2.81 0 0 1 .68.26.81.81 0 0 1 .41.83 1 1 0 0 1 -1.19.93z" fill="#ff9600"/><path d="m39.75 7.62a1 1 0 0 0 -1.06.93 1 1 0 0 0 1 1c.47 0 1.74.28 2 .94a1 1 0 0 1 0 .86c-.22.52-1.08 1.35-3.9 2.31-4.72 1.66-12.72 4.34-15.5 13.49a19.41 19.41 0 0 0 .15 11.68 20.61 20.61 0 0 0 4.07 7.27 6.94 6.94 0 0 0 5.24 2.49 6.78 6.78 0 0 0 3.8-1.17 6.35 6.35 0 0 0 2-8.43c-1.49-2.92-1.9-5.57-1.17-7.44a4.4 4.4 0 0 1 2.71-2.55 4.66 4.66 0 0 1 4.11.46 7 7 0 0 1 .92.64c2.38 1.92 4.16 5.56 4.88 10 1.31 8-.45 14-5.69 19.31a31.09 31.09 0 0 1 -7.79 5.68c-.8.45-1.56.88-2.34 1.36a3.1 3.1 0 0 0 -1.56 3.32 3.15 3.15 0 0 0 2.64 2.23 20.29 20.29 0 0 0 3.59.28h1.24a32.37 32.37 0 0 0 .66-64.67z" fill="#ff4b00"/><path d="m203.24 52.12a1.53 1.53 0 0 1 -.88.28c-.39 0-.63-.5-.63-.5a4.22 4.22 0 0 1 -.36-2v-11.33c0-8.06-3-12-9.13-12-3.11 0-5.64.67-8.63 4a1.08 1.08 0 0 1 -.91.37 2 2 0 0 1 -1.33-1c-1.46-2.21-3.94-3.33-7.39-3.33a11.21 11.21 0 0 0 -8.63 4 1 1 0 0 1 -1.07.26c-.48-.2-.76-.79-.76-1.62a2.19 2.19 0 0 0 -.71-1.72 3.33 3.33 0 0 0 -2.71-.53l-9.64 1.59a1 1 0 0 0 -.84 1 1 1 0 0 0 1 1 3 3 0 0 1 2.23.69 3.25 3.25 0 0 1 .74 2.41v16.31c0 2.93-.77 4-3.15 4.26a1.06 1.06 0 0 0 -.9 1.05 1 1 0 0 0 1 1h15.59a1 1 0 0 0 .16-2.07c-1.81-.27-2.79-1-2.79-4.25v-10.66c0-4 1.85-6.66 4.71-6.66 2.63 0 4.32 2.61 4.32 6.66v10.67c0 3.23-1 4-2.9 4.25a1 1 0 0 0 .15 2.07h15.76a1 1 0 0 0 .11-2.06c-2.4-.26-3.17-1.26-3.17-4.26v-10.67c0-4.91 2.4-6.66 4.64-6.66 3.19 0 4.32 3.44 4.32 6.66v10.23c0 4.43 2.75 7.18 7.18 7.18a7 7 0 0 0 4-1.05 6 6 0 0 0 1.05-1 6.54 6.54 0 0 0 .68-1c.16-.26.47-1 0-1.45a1 1 0 0 0 -1.11-.12z"/><path d="m264.23 26.59a10.38 10.38 0 0 0 -7.82 3.88 1.17 1.17 0 0 1 -1.18.55.82.82 0 0 1 -.45-.85v-1a2.22 2.22 0 0 0 -.71-1.72 3.34 3.34 0 0 0 -2.71-.52l-9.61 1.59a1 1 0 0 0 .17 2.07c2.08 0 2.94.91 2.94 3.1v16.31c0 2.93-.77 4-3.15 4.26a1.06 1.06 0 0 0 -.9 1.05 1 1 0 0 0 1 1h16.29a1 1 0 0 0 .12-2.06c-2.63-.25-3.44-1.25-3.44-4.25v-8.84c0-4.57 1.5-9.19 4.83-9.19a1.82 1.82 0 0 1 1.85 1.03 4 4 0 0 1 .28 1.35 4.86 4.86 0 0 0 9.18 1.9l.16-.33a7 7 0 0 0 .51-2.76c0-4.1-3.74-6.57-7.36-6.57z"/><path d="m288.17 37.15-.22-.06c-1.3-.34-4.32-1.42-4.32-4.08 0-1.42.61-3.12 3.5-3.12 3.37 0 5.75 2.07 7.05 6.16a2.2 2.2 0 0 0 2.3 1.67 2 2 0 0 0 1.76-.91c.84-1.31.57-4-.66-6.7a1.44 1.44 0 0 0 -.47-.57 18.32 18.32 0 0 0 -9.91-2.69 15.55 15.55 0 0 0 -8.67 2.33 8.09 8.09 0 0 0 -3.75 6.93c0 6.53 6.15 9.06 10.78 10.39 4.18 1.11 5.45 1.91 5.45 3.44 0 2.37-1.58 3.57-4.7 3.57-3.59 0-5.89-1.94-7.24-6.1a2.09 2.09 0 0 0 -2.24-1.61 2 2 0 0 0 -1.74.91c-.86 1.31-.61 4 .64 6.74a1.3 1.3 0 0 0 .51.6 18.67 18.67 0 0 0 9.94 2.69c6.91 0 13.88-2.94 13.88-9.51 0-6.95-7.44-8.91-11.89-10.08z"/><path d="m219.05 33.44a4.47 4.47 0 0 1 4.25-3.24c3.19 0 4.49 3.58 4.49 6.4 0 2.29-.59 3.62-4.91 4.06l-1.39.14a1.08 1.08 0 0 0 -1 1.18 1.19 1.19 0 0 0 1.27 1l3.82-.31c5.37-.42 10.92-.86 10.92-6.64 0-5.38-5.08-9.13-12.35-9.13-8 0-16.53 4.75-16.53 15.2a13.78 13.78 0 0 0 5 11.13 17.49 17.49 0 0 0 11 3.56 17.92 17.92 0 0 0 8.56-2.13 13.38 13.38 0 0 0 4.62-4 1.1 1.1 0 0 0 0-1.29 1.08 1.08 0 0 0 -1.63-.13 9.57 9.57 0 0 1 -6.74 2.58c-4.15 0-7-1.65-8.47-3.75l-.23-.36c-1.13-1.8-1.66-4.55-1.63-8.16a20.37 20.37 0 0 1 .65-5.15s.13-.48.3-.96z"/><path d="m144.29 54.3c-2.29-.3-3-1.34-3-4.26v-20.32a2.83 2.83 0 0 0 -.83-2.24 3.14 3.14 0 0 0 -2.59-.5l-9.61 1.59a1 1 0 0 0 .17 2.07c2.08 0 2.93.91 2.93 3.1v16.26c0 2.93-.76 4-3.14 4.26a1 1 0 0 0 -.9 1v.05a1 1 0 0 0 1 1h15.84a1 1 0 0 0 1-1 1 1 0 0 0 -.87-1.01z"/><circle cx="135.49" cy="17.94" r="5.74"/><path d="m123 16a1.7 1.7 0 0 0 -2-1.72h-36.1a1.7 1.7 0 0 0 -1.9 1.72l-.86 10.21a1.26 1.26 0 0 0 .22 1 1 1 0 0 0 .81.38 1.3 1.3 0 0 0 1.01-.59 22.37 22.37 0 0 1 37.62 0 1.3 1.3 0 0 0 1.06.61 1 1 0 0 0 .81-.38 1.26 1.26 0 0 0 .22-1zm-9 38.28c-3.39-.35-5.65-1.17-5.65-4v-26.16a2.27 2.27 0 0 0 -1.81-2.23 17.54 17.54 0 0 0 -7.07 0 2.29 2.29 0 0 0 -1.82 2.24v26.12c0 2.42-1.65 3.58-5.71 4a1.12 1.12 0 0 0 -1 .92 1.06 1.06 0 0 0 1 1.19h22a1.06 1.06 0 0 0 1-1.19 1.12 1.12 0 0 0 -.94-.92z"/></svg>